<?xml version="1.0" encoding="UTF-8" standalone="no"?>
<!-- Created with Inkscape (http://www.inkscape.org/) -->

<svg
   xmlns:dc="http://purl.org/dc/elements/1.1/"
   xmlns:cc="http://creativecommons.org/ns#"
   xmlns:rdf="http://www.w3.org/1999/02/22-rdf-syntax-ns#"
   xmlns:svg="http://www.w3.org/2000/svg"
   xmlns="http://www.w3.org/2000/svg"
   xmlns:sodipodi="http://sodipodi.sourceforge.net/DTD/sodipodi-0.dtd"
   xmlns:inkscape="http://www.inkscape.org/namespaces/inkscape"
   width="1024"
   height="1024"
   id="svg4457"
   version="1.1"
   inkscape:version="0.48.1 "
   inkscape:export-filename="E:\git clones\verse\verse-android\assets\planet1024_01.png"
   inkscape:export-xdpi="90"
   inkscape:export-ydpi="90"
   sodipodi:docname="New document 11">
  <defs
     id="defs4459">
    <inkscape:path-effect
       effect="spiro"
       id="path-effect4993"
       is_visible="true" />
    <inkscape:path-effect
       effect="spiro"
       id="path-effect4989"
       is_visible="true" />
    <inkscape:path-effect
       effect="spiro"
       id="path-effect4985"
       is_visible="true" />
  </defs>
  <sodipodi:namedview
     id="base"
     pagecolor="#ffffff"
     bordercolor="#666666"
     borderopacity="1.0"
     inkscape:pageopacity="0.0"
     inkscape:pageshadow="2"
     inkscape:zoom="0.59"
     inkscape:cx="319.29692"
     inkscape:cy="431.46839"
     inkscape:current-layer="layer1"
     showgrid="true"
     inkscape:document-units="px"
     inkscape:grid-bbox="true"
     inkscape:showpageshadow="false"
     inkscape:window-width="1920"
     inkscape:window-height="1018"
     inkscape:window-x="1912"
     inkscape:window-y="-8"
     inkscape:window-maximized="1" />
  <metadata
     id="metadata4462">
    <rdf:RDF>
      <cc:Work
         rdf:about="">
        <dc:format>image/svg+xml</dc:format>
        <dc:type
           rdf:resource="http://purl.org/dc/dcmitype/StillImage" />
        <dc:title></dc:title>
      </cc:Work>
    </rdf:RDF>
  </metadata>
  <g
     id="layer1"
     inkscape:label="Layer 1"
     inkscape:groupmode="layer"
     transform="translate(0,960)">
    <path
       sodipodi:type="arc"
       style="fill:#ffffff;fill-opacity:1;fill-rule:nonzero;stroke:#000000;stroke-width:4;stroke-miterlimit:4;stroke-opacity:1;stroke-dasharray:none"
       id="path4465"
       sodipodi:cx="621.18646"
       sodipodi:cy="596.03387"
       sodipodi:rx="500.84744"
       sodipodi:ry="500.84744"
       d="m 1122.0339,596.03387 a 500.84744,500.84744 0 1 1 -1001.69488,0 500.84744,500.84744 0 1 1 1001.69488,0 z"
       transform="translate(-110.16949,-1043.0508)" />
    <path
       style="fill:none;stroke:#000000;stroke-width:4;stroke-linecap:butt;stroke-linejoin:miter;stroke-opacity:1;stroke-miterlimit:4;stroke-dasharray:none"
       d="m 40.677966,674.84746 c 12.679027,-36.37321 38.294796,-68.08797 71.186444,-88.1356 20.9402,-12.76316 44.3984,-20.78598 66.10169,-32.20339 28.74196,-15.12022 54.14114,-36.05049 83.05085,-50.84745 15.42606,-7.89558 31.71509,-13.97291 47.34371,-21.45954 15.62863,-7.48663 30.8219,-16.57256 42.4868,-29.38792 10.005,-10.99175 17.1002,-24.42655 21.79775,-38.52802 4.69754,-14.10148 7.06546,-28.88853 8.33885,-43.69722 2.54678,-29.61736 0.79447,-59.60241 5.45662,-88.9612 6.11905,-38.5333 23.64101,-75.42437 50.84746,-103.38983 10.78234,-11.08314 23.15981,-20.83491 37.28813,-27.11865 26.23674,-11.6691 56.0607,-10.55998 84.74576,-11.8644 9.04805,-0.41145 18.08189,-1.08368 27.11865,-1.69492 81.22211,-5.49381 162.77722,-6.06016 244.06779,-1.69491"
       id="path4983"
       inkscape:path-effect="#path-effect4985"
       inkscape:original-d="m 40.677966,674.84746 c 14.361136,-53.0748 38.638922,-55.58808 71.186444,-88.1356 15.52556,-15.52556 46.79549,-22.55029 66.10169,-32.20339 27.70565,-13.85282 54.83206,-41.44119 83.05085,-50.84745 33.60884,-11.20295 66.90825,-27.9252 89.83051,-50.84746 36.11558,-36.11558 15.20272,-130.40544 35.59322,-171.18644 17.02354,-34.04709 24.99529,-77.53767 50.84746,-103.38983 8.84258,-8.84259 27.34435,-17.17487 37.28813,-27.11865 16.99788,-16.99787 62.90643,-4.58463 84.74576,-11.8644 8.07445,-2.69148 18.84272,1.06372 27.11865,-1.69492 76.3687,-25.45623 181.95676,29.36061 244.06779,-1.69491"
       inkscape:connector-curvature="0"
       transform="translate(0,-960)" />
    <path
       style="fill:none;stroke:#000000;stroke-width:4;stroke-linecap:butt;stroke-linejoin:miter;stroke-opacity:1;stroke-miterlimit:4;stroke-dasharray:none"
       d="m 315.25424,969.76271 c 5.92152,-47.94353 29.89897,-93.43921 66.10169,-125.42373 22.8067,-20.14935 49.84786,-34.80406 74.57627,-52.54237 8.93618,-6.41015 17.61819,-13.26638 25.09407,-21.33213 7.47589,-8.06576 13.7411,-17.40745 17.27881,-27.82041 4.06348,-11.96052 4.4002,-24.84933 3.96521,-37.47378 -0.43499,-12.62445 -1.59997,-25.28668 -0.39096,-37.86063 1.209,-12.57396 5.02245,-25.30345 13.3366,-34.81348 4.15708,-4.75502 9.40178,-8.61225 15.32057,-10.81664 5.9188,-2.20439 12.51627,-2.70776 18.61604,-1.06937 5.52714,1.48458 10.4778,4.64458 14.84783,8.34 4.37002,3.69542 8.23223,7.94398 12.27082,11.99898 7.40986,7.43996 15.43708,14.2501 22.73972,21.79532 7.30265,7.54522 13.94466,15.95096 17.93824,25.66231 3.38151,8.22296 4.75768,17.10176 6.50186,25.8201 1.74419,8.71834 3.95615,17.54085 8.75238,25.02736 5.076,7.9232 12.81781,13.90187 21.30886,17.95709 8.49106,4.05521 17.73907,6.29343 27.02066,7.84097 18.56318,3.09509 37.95321,3.64669 55.06031,11.49007 18.37563,8.42498 32.11271,24.37705 44.0678,40.67797 19.64638,26.78811 36.17706,55.85931 49.15254,86.44068"
       id="path4987"
       inkscape:path-effect="#path-effect4989"
       inkscape:original-d="m 315.25424,969.76271 c 17.68479,-47.6593 32.76354,-92.08557 66.10169,-125.42373 21.22003,-21.22002 51.59314,-29.55923 74.57627,-52.54237 14.8482,-14.8482 27.66341,-34.44307 42.37288,-49.15254 18.04121,-18.0412 42.79847,-113.98491 50.84746,-122.0339 3.48762,-3.48762 26.30897,19.52931 27.11865,20.33898 15.87318,15.87318 26.22148,33.00114 40.67796,47.45763 8.07437,8.07437 5.80087,41.39409 15.25424,50.84746 23.68256,23.68256 87.5496,21.4479 103.38983,37.28813 13.45874,13.45874 32.39734,29.00751 44.0678,40.67797 21.01558,21.01558 37.87724,63.89008 49.15254,86.44068"
       inkscape:connector-curvature="0"
       transform="translate(0,-960)" />
    <path
       style="fill:none;stroke:#000000;stroke-width:4;stroke-linecap:butt;stroke-linejoin:miter;stroke-opacity:1;stroke-miterlimit:4;stroke-dasharray:none"
       d="m 623.72881,278.23729 c -20.00224,27.23644 -31.98063,60.29211 -34.06995,94.01966 -2.08932,33.72756 5.71776,68.00887 22.20555,97.50576 17.52405,31.35077 44.3714,56.8385 74.57627,76.27119 12.29795,7.91204 25.19481,14.89529 37.16782,23.29094 11.97301,8.39566 23.14356,18.38406 30.62879,30.94635 9.82322,16.48608 12.60786,36.08674 15.20985,55.10032 2.602,19.01358 5.42121,38.6155 15.29862,55.06917 7.69051,12.81077 19.81557,23.24971 34.18921,27.33117 7.18681,2.04073 14.85111,2.47533 22.18256,1.03839 7.33145,-1.43694 14.31277,-4.76522 19.89942,-9.72549 5.91129,-5.24851 10.1259,-12.13872 13.62373,-19.22783 3.49783,-7.08911 6.36948,-14.48339 10.10508,-21.45014 4.54582,-8.47778 10.37874,-16.34513 13.55932,-25.42373 2.84092,-8.10907 3.43192,-16.83152 3.38984,-25.42373 -0.25921,-52.92525 -23.35628,-102.93888 -49.15255,-149.15254 -5.91465,-10.59602 -12.00761,-21.12007 -16.94915,-32.20339 -22.70079,-50.91537 -19.48411,-108.97735 -25.42373,-164.40678 -2.29688,-21.43485 -6.22425,-43.28193 -17.30135,-61.77588 -5.53856,-9.24697 -12.85322,-17.52139 -21.81087,-23.51661 -8.95765,-5.99522 -19.60053,-9.63823 -30.3793,-9.62276 -6.89577,0.01 -13.71058,1.48829 -20.33899,3.38983 -40.85639,11.72078 -76.52554,40.5064 -96.61017,77.9661"
       id="path4991"
       inkscape:path-effect="#path-effect4993"
       inkscape:original-d="m 623.72881,278.23729 c -41.07049,43.18838 -62.42002,140.9698 -11.8644,191.52542 25.06967,25.06968 49.0057,50.70062 74.57627,76.27119 14.44548,14.44548 59.81668,38.27744 67.79661,54.23729 17.66141,35.32281 30.50847,65.08728 30.50847,110.16949 0,24.69711 64.83975,30.0755 76.27119,18.64407 9.55362,-9.55362 19.19664,-27.08144 23.72881,-40.67797 2.92124,-8.76371 9.41122,-17.12752 13.55932,-25.42373 3.58768,-7.17534 -0.14975,-18.34457 3.38984,-25.42373 20.73884,-41.47769 -24.68356,-124.68355 -49.15255,-149.15254 -8.48672,-8.48672 -9.4073,-24.66154 -16.94915,-32.20339 -10.34132,-10.34132 -12.31475,-138.18883 -25.42373,-164.40678 -9.38562,-18.77125 -54.3193,-102.50137 -69.49152,-94.91525 -6.25612,3.12806 -14.87496,0.65781 -20.33899,3.38983 -35.29818,17.64909 -115.33352,31.15771 -96.61017,77.9661 z"
       inkscape:connector-curvature="0"
       transform="translate(0,-960)" />
  </g>
</svg>
